<?xml version="1.0" encoding="UTF-8" standalone="no"?>
<!DOCTYPE svg PUBLIC "-//W3C//DTD SVG 1.1//EN"
 "http://www.w3.org/Graphics/SVG/1.1/DTD/svg11.dtd">
<!-- Generated by graphviz version 2.44.1 (20200629.0846)
 -->
<!-- Title: All Peering Sessions Pages: 1 -->
<svg width="1230pt" height="571pt"
 viewBox="0.00 0.00 1229.72 571.00" xmlns="http://www.w3.org/2000/svg" xmlns:xlink="http://www.w3.org/1999/xlink">
<g id="graph0" class="graph" transform="scale(1 1) rotate(0) translate(4 567)">
<title>All Peering Sessions</title>
<polygon fill="white" stroke="transparent" points="-4,4 -4,-567 1225.72,-567 1225.72,4 -4,4"/>
<text text-anchor="middle" x="610.86" y="-7.8" font-family="Times,serif" font-size="14.00">All Peering Sessions</text>
<g id="clust1" class="cluster">
<title>cluster_0</title>
<polygon fill="none" stroke="black" points="228.83,-31 228.83,-322 420.83,-322 420.83,-31 228.83,-31"/>
<text text-anchor="middle" x="324.83" y="-306.8" font-family="Times,serif" font-size="14.00">IX100</text>
</g>
<g id="clust2" class="cluster">
<title>cluster_1</title>
<polygon fill="none" stroke="black" points="122.83,-175 122.83,-405 220.83,-405 220.83,-175 122.83,-175"/>
<text text-anchor="middle" x="171.83" y="-389.8" font-family="Times,serif" font-size="14.00">IX101</text>
</g>
<g id="clust3" class="cluster">
<title>cluster_2</title>
<polygon fill="none" stroke="black" points="428.83,-247 428.83,-480 682.83,-480 682.83,-247 428.83,-247"/>
<text text-anchor="middle" x="555.83" y="-464.8" font-family="Times,serif" font-size="14.00">IX102</text>
</g>
<g id="clust4" class="cluster">
<title>cluster_3</title>
<polygon fill="none" stroke="black" points="922.83,-330 922.83,-480 1184.83,-480 1184.83,-330 922.83,-330"/>
<text text-anchor="middle" x="1053.83" y="-464.8" font-family="Times,serif" font-size="14.00">IX103</text>
</g>
<g id="clust5" class="cluster">
<title>cluster_4</title>
<polygon fill="none" stroke="black" points="16.83,-247 16.83,-480 114.83,-480 114.83,-247 16.83,-247"/>
<text text-anchor="middle" x="65.83" y="-464.8" font-family="Times,serif" font-size="14.00">IX104</text>
</g>
<g id="clust6" class="cluster">
<title>cluster_5</title>
<polygon fill="none" stroke="black" points="690.83,-330 690.83,-555 882.83,-555 882.83,-330 690.83,-330"/>
<text text-anchor="middle" x="786.83" y="-539.8" font-family="Times,serif" font-size="14.00">IX105</text>
</g>
<!-- IX100::AS2 -->
<g id="node1" class="node">
<title>IX100::AS2</title>
<ellipse fill="none" stroke="black" cx="318.83" cy="-273" rx="27" ry="18"/>
<text text-anchor="middle" x="318.83" y="-269.3" font-family="Times,serif" font-size="14.00">AS2</text>
</g>
<!-- IX100::AS3 -->
<g id="node2" class="node">
<title>IX100::AS3</title>
<ellipse fill="none" stroke="black" cx="374.83" cy="-201" rx="27" ry="18"/>
<text text-anchor="middle" x="374.83" y="-197.3" font-family="Times,serif" font-size="14.00">AS3</text>
</g>
<!-- IX100::AS2&#45;&#45;IX100::AS3 -->
<g id="edge1" class="edge">
<title>IX100::AS2&#45;&#45;IX100::AS3</title>
<path fill="none" stroke="black" stroke-dasharray="5,2" d="M330.99,-256.81C340.38,-245.07 353.32,-228.89 362.71,-217.16"/>
<text text-anchor="middle" x="357.71" y="-220.96" font-family="Times,serif" font-size="14.00">R</text>
<text text-anchor="middle" x="325.99" y="-245.61" font-family="Times,serif" font-size="14.00">R</text>
</g>
<!-- IX100::AS4 -->
<g id="node3" class="node">
<title>IX100::AS4</title>
<ellipse fill="none" stroke="black" cx="318.83" cy="-129" rx="27" ry="18"/>
<text text-anchor="middle" x="318.83" y="-125.3" font-family="Times,serif" font-size="14.00">AS4</text>
</g>
<!-- IX100::AS2&#45;&#45;IX100::AS4 -->
<g id="edge2" class="edge">
<title>IX100::AS2&#45;&#45;IX100::AS4</title>
<path fill="none" stroke="black" stroke-dasharray="5,2" d="M318.83,-254.87C318.83,-227.58 318.83,-174.52 318.83,-147.19"/>
<text text-anchor="middle" x="313.83" y="-150.99" font-family="Times,serif" font-size="14.00">R</text>
<text text-anchor="middle" x="313.83" y="-243.67" font-family="Times,serif" font-size="14.00">R</text>
</g>
<!-- IX100::AS15169 -->
<g id="node5" class="node">
<title>IX100::AS15169</title>
<ellipse fill="none" stroke="black" cx="280.83" cy="-57" rx="44.39" ry="18"/>
<text text-anchor="middle" x="280.83" y="-53.3" font-family="Times,serif" font-size="14.00">AS15169</text>
</g>
<!-- IX100::AS2&#45;&#45;IX100::AS15169 -->
<g id="edge24" class="edge">
<title>IX100::AS2&#45;&#45;IX100::AS15169</title>
<path fill="none" stroke="black" d="M312.53,-255.33C303.93,-231.65 288.9,-186.74 282.83,-147 279.06,-122.25 279.26,-93.18 279.92,-75.18"/>
<text text-anchor="middle" x="274.92" y="-78.98" font-family="Times,serif" font-size="14.00">C</text>
<text text-anchor="middle" x="307.53" y="-244.13" font-family="Times,serif" font-size="14.00">U</text>
</g>
<!-- IX100::AS3&#45;&#45;IX100::AS4 -->
<g id="edge3" class="edge">
<title>IX100::AS3&#45;&#45;IX100::AS4</title>
<path fill="none" stroke="black" stroke-dasharray="5,2" d="M362.68,-184.81C353.29,-173.07 340.35,-156.89 330.96,-145.16"/>
<text text-anchor="middle" x="325.96" y="-148.96" font-family="Times,serif" font-size="14.00">R</text>
<text text-anchor="middle" x="357.68" y="-173.61" font-family="Times,serif" font-size="14.00">R</text>
</g>
<!-- IX100::AS151 -->
<g id="node4" class="node">
<title>IX100::AS151</title>
<ellipse fill="none" stroke="black" cx="377.83" cy="-57" rx="35.19" ry="18"/>
<text text-anchor="middle" x="377.83" y="-53.3" font-family="Times,serif" font-size="14.00">AS151</text>
</g>
<!-- IX100::AS3&#45;&#45;IX100::AS151 -->
<g id="edge10" class="edge">
<title>IX100::AS3&#45;&#45;IX100::AS151</title>
<path fill="none" stroke="black" d="M375.2,-182.87C375.77,-155.58 376.89,-102.52 377.47,-75.19"/>
<text text-anchor="middle" x="372.47" y="-78.99" font-family="Times,serif" font-size="14.00">C</text>
<text text-anchor="middle" x="380.2" y="-171.67" font-family="Times,serif" font-size="14.00">U</text>
</g>
<!-- IX100::AS3&#45;&#45;IX100::AS15169 -->
<g id="edge25" class="edge">
<title>IX100::AS3&#45;&#45;IX100::AS15169</title>
<path fill="none" stroke="black" d="M374.54,-182.86C373.45,-163.83 369.35,-132.92 354.83,-111 343.4,-93.74 324.29,-80.27 308.36,-71.23"/>
<text text-anchor="middle" x="303.36" y="-75.03" font-family="Times,serif" font-size="14.00">C</text>
<text text-anchor="middle" x="369.54" y="-171.66" font-family="Times,serif" font-size="14.00">U</text>
</g>
<!-- IX100::AS4&#45;&#45;IX100::AS151 -->
<g id="edge11" class="edge">
<title>IX100::AS4&#45;&#45;IX100::AS151</title>
<path fill="none" stroke="black" d="M331.64,-112.81C341.26,-101.39 354.42,-85.78 364.24,-74.13"/>
<text text-anchor="middle" x="359.24" y="-77.93" font-family="Times,serif" font-size="14.00">C</text>
<text text-anchor="middle" x="326.64" y="-101.61" font-family="Times,serif" font-size="14.00">U</text>
</g>
<!-- IX100::AS4&#45;&#45;IX100::AS15169 -->
<g id="edge26" class="edge">
<title>IX100::AS4&#45;&#45;IX100::AS15169</title>
<path fill="none" stroke="black" d="M310.02,-111.76C303.97,-100.62 295.96,-85.87 289.86,-74.63"/>
<text text-anchor="middle" x="284.86" y="-78.43" font-family="Times,serif" font-size="14.00">C</text>
<text text-anchor="middle" x="305.02" y="-100.56" font-family="Times,serif" font-size="14.00">U</text>
</g>
<!-- IX101::AS2 -->
<g id="node6" class="node">
<title>IX101::AS2</title>
<ellipse fill="none" stroke="black" cx="185.83" cy="-356" rx="27" ry="18"/>
<text text-anchor="middle" x="185.83" y="-352.3" font-family="Times,serif" font-size="14.00">AS2</text>
</g>
<!-- IX101::AS2&#45;&#45;IX100::AS2 -->
<g id="edge35" class="edge">
<title>IX101::AS2&#45;&#45;IX100::AS2</title>
<path fill="none" stroke="black" stroke-dasharray="1,5" d="M205.17,-343.22C230.39,-327.86 274.24,-301.16 299.47,-285.79"/>
<text text-anchor="middle" x="296.97" y="-289.59" font-family="Times,serif" font-size="14.00">I</text>
<text text-anchor="middle" x="202.67" y="-332.02" font-family="Times,serif" font-size="14.00">I</text>
</g>
<!-- IX101::AS12 -->
<g id="node7" class="node">
<title>IX101::AS12</title>
<ellipse fill="none" stroke="black" cx="161.83" cy="-273" rx="30.59" ry="18"/>
<text text-anchor="middle" x="161.83" y="-269.3" font-family="Times,serif" font-size="14.00">AS12</text>
</g>
<!-- IX101::AS2&#45;&#45;IX101::AS12 -->
<g id="edge6" class="edge">
<title>IX101::AS2&#45;&#45;IX101::AS12</title>
<path fill="none" stroke="black" d="M180.86,-338.22C176.74,-324.32 170.92,-304.66 166.8,-290.76"/>
<text text-anchor="middle" x="161.8" y="-294.56" font-family="Times,serif" font-size="14.00">C</text>
<text text-anchor="middle" x="175.86" y="-327.02" font-family="Times,serif" font-size="14.00">U</text>
</g>
<!-- IX101::AS150 -->
<g id="node8" class="node">
<title>IX101::AS150</title>
<ellipse fill="none" stroke="black" cx="171.83" cy="-201" rx="35.19" ry="18"/>
<text text-anchor="middle" x="171.83" y="-197.3" font-family="Times,serif" font-size="14.00">AS150</text>
</g>
<!-- IX101::AS2&#45;&#45;IX101::AS150 -->
<g id="edge8" class="edge">
<title>IX101::AS2&#45;&#45;IX101::AS150</title>
<path fill="none" stroke="black" d="M195.34,-339.09C197.98,-333.83 200.49,-327.83 201.83,-322 209.29,-289.51 211.49,-278.9 201.83,-247 198.62,-236.4 192,-226.01 185.79,-217.89"/>
<text text-anchor="middle" x="180.79" y="-221.69" font-family="Times,serif" font-size="14.00">C</text>
<text text-anchor="middle" x="190.34" y="-327.89" font-family="Times,serif" font-size="14.00">U</text>
</g>
<!-- IX101::AS12&#45;&#45;IX101::AS150 -->
<g id="edge9" class="edge">
<title>IX101::AS12&#45;&#45;IX101::AS150</title>
<path fill="none" stroke="black" d="M164.26,-255.05C165.8,-244.21 167.81,-230.18 169.37,-219.28"/>
<text text-anchor="middle" x="164.37" y="-223.08" font-family="Times,serif" font-size="14.00">C</text>
<text text-anchor="middle" x="159.26" y="-243.85" font-family="Times,serif" font-size="14.00">U</text>
</g>
<!-- IX102::AS2 -->
<g id="node9" class="node">
<title>IX102::AS2</title>
<ellipse fill="none" stroke="black" cx="471.83" cy="-431" rx="27" ry="18"/>
<text text-anchor="middle" x="471.83" y="-427.3" font-family="Times,serif" font-size="14.00">AS2</text>
</g>
<!-- IX102::AS2&#45;&#45;IX100::AS2 -->
<g id="edge33" class="edge">
<title>IX102::AS2&#45;&#45;IX100::AS2</title>
<path fill="none" stroke="black" stroke-dasharray="1,5" d="M450.24,-419.74C442.76,-415.69 434.57,-410.64 427.83,-405 385.4,-369.5 346.8,-315.96 329.07,-289.68"/>
<text text-anchor="middle" x="326.57" y="-293.48" font-family="Times,serif" font-size="14.00">I</text>
<text text-anchor="middle" x="447.74" y="-408.54" font-family="Times,serif" font-size="14.00">I</text>
</g>
<!-- IX102::AS2&#45;&#45;IX101::AS2 -->
<g id="edge34" class="edge">
<title>IX102::AS2&#45;&#45;IX101::AS2</title>
<path fill="none" stroke="black" stroke-dasharray="1,5" d="M446.18,-425.17C421.99,-420.49 384.8,-412.94 352.83,-405 301.45,-392.24 242.03,-374.41 209.75,-364.47"/>
<text text-anchor="middle" x="212.25" y="-368.27" font-family="Times,serif" font-size="14.00">I</text>
<text text-anchor="middle" x="443.68" y="-428.97" font-family="Times,serif" font-size="14.00">I</text>
</g>
<!-- IX102::AS11 -->
<g id="node10" class="node">
<title>IX102::AS11</title>
<ellipse fill="none" stroke="black" cx="643.83" cy="-356" rx="30.59" ry="18"/>
<text text-anchor="middle" x="643.83" y="-352.3" font-family="Times,serif" font-size="14.00">AS11</text>
</g>
<!-- IX102::AS2&#45;&#45;IX102::AS11 -->
<g id="edge4" class="edge">
<title>IX102::AS2&#45;&#45;IX102::AS11</title>
<path fill="none" stroke="black" d="M498.98,-430.11C527.06,-429.08 571.26,-424.15 603.83,-405 616.74,-397.41 627.35,-384.06 634.4,-373.36"/>
<text text-anchor="middle" x="629.4" y="-377.16" font-family="Times,serif" font-size="14.00">C</text>
<text text-anchor="middle" x="503.98" y="-433.91" font-family="Times,serif" font-size="14.00">U</text>
</g>
<!-- IX102::AS152 -->
<g id="node11" class="node">
<title>IX102::AS152</title>
<ellipse fill="none" stroke="black" cx="471.83" cy="-356" rx="35.19" ry="18"/>
<text text-anchor="middle" x="471.83" y="-352.3" font-family="Times,serif" font-size="14.00">AS152</text>
</g>
<!-- IX102::AS2&#45;&#45;IX102::AS152 -->
<g id="edge12" class="edge">
<title>IX102::AS2&#45;&#45;IX102::AS152</title>
<path fill="none" stroke="black" d="M471.83,-412.7C471.83,-401.06 471.83,-385.79 471.83,-374.18"/>
<text text-anchor="middle" x="466.83" y="-377.98" font-family="Times,serif" font-size="14.00">C</text>
<text text-anchor="middle" x="466.83" y="-401.5" font-family="Times,serif" font-size="14.00">U</text>
</g>
<!-- IX102::AS153 -->
<g id="node12" class="node">
<title>IX102::AS153</title>
<ellipse fill="none" stroke="black" cx="559.83" cy="-356" rx="35.19" ry="18"/>
<text text-anchor="middle" x="559.83" y="-352.3" font-family="Times,serif" font-size="14.00">AS153</text>
</g>
<!-- IX102::AS2&#45;&#45;IX102::AS153 -->
<g id="edge13" class="edge">
<title>IX102::AS2&#45;&#45;IX102::AS153</title>
<path fill="none" stroke="black" d="M493.28,-419.56C500.75,-415.49 508.96,-410.47 515.83,-405 527.68,-395.56 539.18,-382.85 547.45,-372.88"/>
<text text-anchor="middle" x="542.45" y="-376.68" font-family="Times,serif" font-size="14.00">C</text>
<text text-anchor="middle" x="498.28" y="-408.36" font-family="Times,serif" font-size="14.00">U</text>
</g>
<!-- IX102::AS170 -->
<g id="node13" class="node">
<title>IX102::AS170</title>
<ellipse fill="none" stroke="black" cx="639.83" cy="-273" rx="35.19" ry="18"/>
<text text-anchor="middle" x="639.83" y="-269.3" font-family="Times,serif" font-size="14.00">AS170</text>
</g>
<!-- IX102::AS11&#45;&#45;IX102::AS170 -->
<g id="edge20" class="edge">
<title>IX102::AS11&#45;&#45;IX102::AS170</title>
<path fill="none" stroke="black" d="M642.99,-337.82C642.31,-324.08 641.36,-304.89 640.68,-291.15"/>
<text text-anchor="middle" x="635.68" y="-294.95" font-family="Times,serif" font-size="14.00">C</text>
<text text-anchor="middle" x="637.99" y="-326.62" font-family="Times,serif" font-size="14.00">U</text>
</g>
<!-- IX103::AS3 -->
<g id="node14" class="node">
<title>IX103::AS3</title>
<ellipse fill="none" stroke="black" cx="965.83" cy="-431" rx="27" ry="18"/>
<text text-anchor="middle" x="965.83" y="-427.3" font-family="Times,serif" font-size="14.00">AS3</text>
</g>
<!-- IX103::AS3&#45;&#45;IX100::AS3 -->
<g id="edge32" class="edge">
<title>IX103::AS3&#45;&#45;IX100::AS3</title>
<path fill="none" stroke="black" stroke-dasharray="1,5" d="M943.37,-420.66C935.81,-416.68 927.79,-411.46 921.83,-405 896.89,-377.97 913.4,-355.44 886.83,-330 817.33,-263.44 779.63,-272.51 686.83,-247 583.67,-218.64 456.12,-207.35 401.59,-203.6"/>
<text text-anchor="middle" x="404.09" y="-207.4" font-family="Times,serif" font-size="14.00">I</text>
<text text-anchor="middle" x="940.87" y="-409.46" font-family="Times,serif" font-size="14.00">I</text>
</g>
<!-- IX103::AS160 -->
<g id="node15" class="node">
<title>IX103::AS160</title>
<ellipse fill="none" stroke="black" cx="965.83" cy="-356" rx="35.19" ry="18"/>
<text text-anchor="middle" x="965.83" y="-352.3" font-family="Times,serif" font-size="14.00">AS160</text>
</g>
<!-- IX103::AS3&#45;&#45;IX103::AS160 -->
<g id="edge17" class="edge">
<title>IX103::AS3&#45;&#45;IX103::AS160</title>
<path fill="none" stroke="black" d="M965.83,-412.7C965.83,-401.06 965.83,-385.79 965.83,-374.18"/>
<text text-anchor="middle" x="960.83" y="-377.98" font-family="Times,serif" font-size="14.00">C</text>
<text text-anchor="middle" x="960.83" y="-401.5" font-family="Times,serif" font-size="14.00">U</text>
</g>
<!-- IX103::AS161 -->
<g id="node16" class="node">
<title>IX103::AS161</title>
<ellipse fill="none" stroke="black" cx="1053.83" cy="-356" rx="35.19" ry="18"/>
<text text-anchor="middle" x="1053.83" y="-352.3" font-family="Times,serif" font-size="14.00">AS161</text>
</g>
<!-- IX103::AS3&#45;&#45;IX103::AS161 -->
<g id="edge18" class="edge">
<title>IX103::AS3&#45;&#45;IX103::AS161</title>
<path fill="none" stroke="black" d="M987.28,-419.56C994.75,-415.49 1002.96,-410.47 1009.83,-405 1021.68,-395.56 1033.18,-382.85 1041.45,-372.88"/>
<text text-anchor="middle" x="1036.45" y="-376.68" font-family="Times,serif" font-size="14.00">C</text>
<text text-anchor="middle" x="992.28" y="-408.36" font-family="Times,serif" font-size="14.00">U</text>
</g>
<!-- IX103::AS162 -->
<g id="node17" class="node">
<title>IX103::AS162</title>
<ellipse fill="none" stroke="black" cx="1141.83" cy="-356" rx="35.19" ry="18"/>
<text text-anchor="middle" x="1141.83" y="-352.3" font-family="Times,serif" font-size="14.00">AS162</text>
</g>
<!-- IX103::AS3&#45;&#45;IX103::AS162 -->
<g id="edge19" class="edge">
<title>IX103::AS3&#45;&#45;IX103::AS162</title>
<path fill="none" stroke="black" d="M992.8,-429.8C1020.73,-428.51 1064.82,-423.38 1097.83,-405 1111.46,-397.41 1123.19,-384.06 1131.1,-373.36"/>
<text text-anchor="middle" x="1126.1" y="-377.16" font-family="Times,serif" font-size="14.00">C</text>
<text text-anchor="middle" x="997.8" y="-433.6" font-family="Times,serif" font-size="14.00">U</text>
</g>
<!-- IX104::AS4 -->
<g id="node18" class="node">
<title>IX104::AS4</title>
<ellipse fill="none" stroke="black" cx="51.83" cy="-431" rx="27" ry="18"/>
<text text-anchor="middle" x="51.83" y="-427.3" font-family="Times,serif" font-size="14.00">AS4</text>
</g>
<!-- IX104::AS4&#45;&#45;IX100::AS4 -->
<g id="edge31" class="edge">
<title>IX104::AS4&#45;&#45;IX100::AS4</title>
<path fill="none" stroke="black" stroke-dasharray="1,5" d="M34.12,-417.39C30.4,-413.83 26.96,-409.65 24.83,-405 -4.44,-341.16 -9.73,-309.74 21.83,-247 72.15,-147 227.98,-131.96 291.48,-130.07"/>
<text text-anchor="middle" x="288.98" y="-133.87" font-family="Times,serif" font-size="14.00">I</text>
<text text-anchor="middle" x="31.62" y="-406.19" font-family="Times,serif" font-size="14.00">I</text>
</g>
<!-- IX104::AS12 -->
<g id="node19" class="node">
<title>IX104::AS12</title>
<ellipse fill="none" stroke="black" cx="75.83" cy="-356" rx="30.59" ry="18"/>
<text text-anchor="middle" x="75.83" y="-352.3" font-family="Times,serif" font-size="14.00">AS12</text>
</g>
<!-- IX104::AS4&#45;&#45;IX104::AS12 -->
<g id="edge7" class="edge">
<title>IX104::AS4&#45;&#45;IX104::AS12</title>
<path fill="none" stroke="black" d="M57.4,-413.07C61.28,-401.28 66.43,-385.61 70.3,-373.84"/>
<text text-anchor="middle" x="65.3" y="-377.64" font-family="Times,serif" font-size="14.00">C</text>
<text text-anchor="middle" x="52.4" y="-401.87" font-family="Times,serif" font-size="14.00">U</text>
</g>
<!-- IX104::AS154 -->
<g id="node20" class="node">
<title>IX104::AS154</title>
<ellipse fill="none" stroke="black" cx="65.83" cy="-273" rx="35.19" ry="18"/>
<text text-anchor="middle" x="65.83" y="-269.3" font-family="Times,serif" font-size="14.00">AS154</text>
</g>
<!-- IX104::AS4&#45;&#45;IX104::AS154 -->
<g id="edge14" class="edge">
<title>IX104::AS4&#45;&#45;IX104::AS154</title>
<path fill="none" stroke="black" d="M40.05,-414.52C38.32,-411.51 36.79,-408.26 35.83,-405 26.47,-373.01 27.72,-362.33 35.83,-330 39.43,-315.67 47.48,-300.99 54.34,-290.27"/>
<text text-anchor="middle" x="49.34" y="-294.07" font-family="Times,serif" font-size="14.00">C</text>
<text text-anchor="middle" x="42.55" y="-403.32" font-family="Times,serif" font-size="14.00">U</text>
</g>
<!-- IX104::AS12&#45;&#45;IX101::AS12 -->
<g id="edge27" class="edge">
<title>IX104::AS12&#45;&#45;IX101::AS12</title>
<path fill="none" stroke="black" stroke-dasharray="1,5" d="M94.86,-341.59C102.56,-335.86 111.38,-328.91 118.83,-322 129.67,-311.96 140.76,-299.51 148.97,-289.81"/>
<text text-anchor="middle" x="146.47" y="-293.61" font-family="Times,serif" font-size="14.00">I</text>
<text text-anchor="middle" x="92.36" y="-330.39" font-family="Times,serif" font-size="14.00">I</text>
</g>
<!-- IX104::AS12&#45;&#45;IX104::AS154 -->
<g id="edge15" class="edge">
<title>IX104::AS12&#45;&#45;IX104::AS154</title>
<path fill="none" stroke="black" d="M73.71,-337.82C72.02,-324.08 69.65,-304.89 67.95,-291.15"/>
<text text-anchor="middle" x="62.95" y="-294.95" font-family="Times,serif" font-size="14.00">C</text>
<text text-anchor="middle" x="68.71" y="-326.62" font-family="Times,serif" font-size="14.00">U</text>
</g>
<!-- IX105::AS3 -->
<g id="node21" class="node">
<title>IX105::AS3</title>
<ellipse fill="none" stroke="black" cx="839.83" cy="-506" rx="27" ry="18"/>
<text text-anchor="middle" x="839.83" y="-502.3" font-family="Times,serif" font-size="14.00">AS3</text>
</g>
<!-- IX105::AS3&#45;&#45;IX100::AS3 -->
<g id="edge29" class="edge">
<title>IX105::AS3&#45;&#45;IX100::AS3</title>
<path fill="none" stroke="black" stroke-dasharray="1,5" d="M866.93,-505.13C945.13,-505.22 1167.05,-503.4 1188.83,-480 1234.26,-431.2 1230.82,-381.78 1188.83,-330 1087.13,-204.58 531.81,-200.82 401.99,-201.69"/>
<text text-anchor="middle" x="404.49" y="-190.49" font-family="Times,serif" font-size="14.00">I</text>
<text text-anchor="middle" x="869.43" y="-508.93" font-family="Times,serif" font-size="14.00">I</text>
</g>
<!-- IX105::AS3&#45;&#45;IX103::AS3 -->
<g id="edge30" class="edge">
<title>IX105::AS3&#45;&#45;IX103::AS3</title>
<path fill="none" stroke="black" stroke-dasharray="1,5" d="M860.56,-494.3C868.8,-489.96 878.32,-484.85 886.83,-480 907.62,-468.17 930.97,-453.85 946.86,-443.95"/>
<text text-anchor="middle" x="944.36" y="-447.75" font-family="Times,serif" font-size="14.00">I</text>
<text text-anchor="middle" x="858.06" y="-483.1" font-family="Times,serif" font-size="14.00">I</text>
</g>
<!-- IX105::AS11 -->
<g id="node22" class="node">
<title>IX105::AS11</title>
<ellipse fill="none" stroke="black" cx="734.83" cy="-431" rx="30.59" ry="18"/>
<text text-anchor="middle" x="734.83" y="-427.3" font-family="Times,serif" font-size="14.00">AS11</text>
</g>
<!-- IX105::AS3&#45;&#45;IX105::AS11 -->
<g id="edge5" class="edge">
<title>IX105::AS3&#45;&#45;IX105::AS11</title>
<path fill="none" stroke="black" d="M816.02,-497.43C804.79,-493.25 791.55,-487.39 780.83,-480 767.91,-471.09 755.74,-458.1 747.16,-447.88"/>
<text text-anchor="middle" x="742.16" y="-451.68" font-family="Times,serif" font-size="14.00">C</text>
<text text-anchor="middle" x="811.02" y="-486.23" font-family="Times,serif" font-size="14.00">U</text>
</g>
<!-- IX105::AS155 -->
<g id="node23" class="node">
<title>IX105::AS155</title>
<ellipse fill="none" stroke="black" cx="839.83" cy="-431" rx="35.19" ry="18"/>
<text text-anchor="middle" x="839.83" y="-427.3" font-family="Times,serif" font-size="14.00">AS155</text>
</g>
<!-- IX105::AS3&#45;&#45;IX105::AS155 -->
<g id="edge16" class="edge">
<title>IX105::AS3&#45;&#45;IX105::AS155</title>
<path fill="none" stroke="black" d="M839.83,-487.7C839.83,-476.06 839.83,-460.79 839.83,-449.18"/>
<text text-anchor="middle" x="834.83" y="-452.98" font-family="Times,serif" font-size="14.00">C</text>
<text text-anchor="middle" x="834.83" y="-476.5" font-family="Times,serif" font-size="14.00">U</text>
</g>
<!-- IX105::AS11872 -->
<g id="node25" class="node">
<title>IX105::AS11872</title>
<ellipse fill="none" stroke="black" cx="830.83" cy="-356" rx="44.39" ry="18"/>
<text text-anchor="middle" x="830.83" y="-352.3" font-family="Times,serif" font-size="14.00">AS11872</text>
</g>
<!-- IX105::AS3&#45;&#45;IX105::AS11872 -->
<g id="edge22" class="edge">
<title>IX105::AS3&#45;&#45;IX105::AS11872</title>
<path fill="none" stroke="black" d="M816.12,-497.15C808.24,-493.29 800.34,-487.75 795.83,-480 780.86,-454.26 787.63,-441.62 795.83,-413 800.01,-398.45 809.18,-384.02 817.09,-373.45"/>
<text text-anchor="middle" x="812.09" y="-377.25" font-family="Times,serif" font-size="14.00">X</text>
<text text-anchor="middle" x="811.12" y="-500.95" font-family="Times,serif" font-size="14.00">X</text>
</g>
<!-- IX105::AS11&#45;&#45;IX102::AS11 -->
<g id="edge28" class="edge">
<title>IX105::AS11&#45;&#45;IX102::AS11</title>
<path fill="none" stroke="black" stroke-dasharray="1,5" d="M710.86,-419.64C702.85,-415.63 694.11,-410.65 686.83,-405 674.99,-395.81 663.77,-383.08 655.76,-373.05"/>
<text text-anchor="middle" x="653.26" y="-376.85" font-family="Times,serif" font-size="14.00">I</text>
<text text-anchor="middle" x="708.36" y="-408.44" font-family="Times,serif" font-size="14.00">I</text>
</g>
<!-- IX105::AS171 -->
<g id="node24" class="node">
<title>IX105::AS171</title>
<ellipse fill="none" stroke="black" cx="733.83" cy="-356" rx="35.19" ry="18"/>
<text text-anchor="middle" x="733.83" y="-352.3" font-family="Times,serif" font-size="14.00">AS171</text>
</g>
<!-- IX105::AS11&#45;&#45;IX105::AS171 -->
<g id="edge21" class="edge">
<title>IX105::AS11&#45;&#45;IX105::AS171</title>
<path fill="none" stroke="black" d="M734.6,-412.7C734.44,-401.06 734.23,-385.79 734.07,-374.18"/>
<text text-anchor="middle" x="729.07" y="-377.98" font-family="Times,serif" font-size="14.00">C</text>
<text text-anchor="middle" x="729.6" y="-401.5" font-family="Times,serif" font-size="14.00">U</text>
</g>
<!-- IX105::AS11&#45;&#45;IX105::AS11872 -->
<g id="edge23" class="edge">
<title>IX105::AS11&#45;&#45;IX105::AS11872</title>
<path fill="none" stroke="black" d="M756.83,-418.39C763.74,-414.43 771.28,-409.79 777.83,-405 791.06,-395.33 804.74,-382.87 814.89,-373.07"/>
<text text-anchor="middle" x="819.89" y="-376.87" font-family="Times,serif" font-size="14.00">X</text>
<text text-anchor="middle" x="761.83" y="-407.19" font-family="Times,serif" font-size="14.00">X</text>
</g>
</g>
</svg>
