<?xml version="1.0" encoding="UTF-8" standalone="no"?>
<!DOCTYPE svg PUBLIC "-//W3C//DTD SVG 1.1//EN"
 "http://www.w3.org/Graphics/SVG/1.1/DTD/svg11.dtd">
<!-- Generated by graphviz version 2.44.1 (20200629.0846)
 -->
<!-- Title: All Peering Sessions Pages: 1 -->
<svg width="1096pt" height="582pt"
 viewBox="0.00 0.00 1096.29 582.00" xmlns="http://www.w3.org/2000/svg" xmlns:xlink="http://www.w3.org/1999/xlink">
<g id="graph0" class="graph" transform="scale(1 1) rotate(0) translate(4 578)">
<title>All Peering Sessions</title>
<polygon fill="white" stroke="transparent" points="-4,4 -4,-578 1092.29,-578 1092.29,4 -4,4"/>
<text text-anchor="middle" x="544.14" y="-7.8" font-family="Times,serif" font-size="14.00">All Peering Sessions</text>
<g id="clust1" class="cluster">
<title>cluster_0</title>
<polygon fill="none" stroke="black" points="426.29,-31 426.29,-333 618.29,-333 618.29,-31 426.29,-31"/>
<text text-anchor="middle" x="522.29" y="-317.8" font-family="Times,serif" font-size="14.00">IX100</text>
</g>
<g id="clust2" class="cluster">
<title>cluster_1</title>
<polygon fill="none" stroke="black" points="332.29,-258 332.29,-416 418.29,-416 418.29,-258 332.29,-258"/>
<text text-anchor="middle" x="375.29" y="-400.8" font-family="Times,serif" font-size="14.00">IX101</text>
</g>
<g id="clust3" class="cluster">
<title>cluster_2</title>
<polygon fill="none" stroke="black" points="626.29,-258 626.29,-491 880.29,-491 880.29,-258 626.29,-258"/>
<text text-anchor="middle" x="753.29" y="-475.8" font-family="Times,serif" font-size="14.00">IX102</text>
</g>
<g id="clust4" class="cluster">
<title>cluster_3</title>
<polygon fill="none" stroke="black" points="62.29,-341 62.29,-491 324.29,-491 324.29,-341 62.29,-341"/>
<text text-anchor="middle" x="193.29" y="-475.8" font-family="Times,serif" font-size="14.00">IX103</text>
</g>
<g id="clust5" class="cluster">
<title>cluster_4</title>
<polygon fill="none" stroke="black" points="332.29,-103 332.29,-250 418.29,-250 418.29,-103 332.29,-103"/>
<text text-anchor="middle" x="375.29" y="-234.8" font-family="Times,serif" font-size="14.00">IX104</text>
</g>
<g id="clust6" class="cluster">
<title>cluster_5</title>
<polygon fill="none" stroke="black" points="888.29,-341 888.29,-566 1080.29,-566 1080.29,-341 888.29,-341"/>
<text text-anchor="middle" x="984.29" y="-550.8" font-family="Times,serif" font-size="14.00">IX105</text>
</g>
<!-- IX100::AS2 -->
<g id="node1" class="node">
<title>IX100::AS2</title>
<ellipse fill="none" stroke="black" cx="507.29" cy="-284" rx="27" ry="18"/>
<text text-anchor="middle" x="507.29" y="-280.3" font-family="Times,serif" font-size="14.00">AS2</text>
</g>
<!-- IX100::AS3 -->
<g id="node2" class="node">
<title>IX100::AS3</title>
<ellipse fill="none" stroke="black" cx="461.29" cy="-201" rx="27" ry="18"/>
<text text-anchor="middle" x="461.29" y="-197.3" font-family="Times,serif" font-size="14.00">AS3</text>
</g>
<!-- IX100::AS2&#45;&#45;IX100::AS3 -->
<g id="edge1" class="edge">
<title>IX100::AS2&#45;&#45;IX100::AS3</title>
<path fill="none" stroke="black" stroke-dasharray="5,2" d="M498.2,-267C490.13,-252.8 478.41,-232.16 470.35,-217.97"/>
<text text-anchor="middle" x="465.35" y="-221.77" font-family="Times,serif" font-size="14.00">R</text>
<text text-anchor="middle" x="493.2" y="-255.8" font-family="Times,serif" font-size="14.00">R</text>
</g>
<!-- IX100::AS4 -->
<g id="node3" class="node">
<title>IX100::AS4</title>
<ellipse fill="none" stroke="black" cx="500.29" cy="-129" rx="27" ry="18"/>
<text text-anchor="middle" x="500.29" y="-125.3" font-family="Times,serif" font-size="14.00">AS4</text>
</g>
<!-- IX100::AS2&#45;&#45;IX100::AS4 -->
<g id="edge2" class="edge">
<title>IX100::AS2&#45;&#45;IX100::AS4</title>
<path fill="none" stroke="black" stroke-dasharray="5,2" d="M506.5,-265.75C505.15,-236.36 502.43,-176.93 501.08,-147.43"/>
<text text-anchor="middle" x="496.08" y="-151.23" font-family="Times,serif" font-size="14.00">R</text>
<text text-anchor="middle" x="511.5" y="-254.55" font-family="Times,serif" font-size="14.00">R</text>
</g>
<!-- IX100::AS15169 -->
<g id="node5" class="node">
<title>IX100::AS15169</title>
<ellipse fill="none" stroke="black" cx="566.29" cy="-57" rx="44.39" ry="18"/>
<text text-anchor="middle" x="566.29" y="-53.3" font-family="Times,serif" font-size="14.00">AS15169</text>
</g>
<!-- IX100::AS2&#45;&#45;IX100::AS15169 -->
<g id="edge20" class="edge">
<title>IX100::AS2&#45;&#45;IX100::AS15169</title>
<path fill="none" stroke="black" d="M513.5,-266.48C522.84,-241.1 540.55,-190.87 551.29,-147 557.32,-122.34 561.72,-93.25 564.14,-75.21"/>
<text text-anchor="middle" x="569.14" y="-79.01" font-family="Times,serif" font-size="14.00">C</text>
<text text-anchor="middle" x="518.5" y="-255.28" font-family="Times,serif" font-size="14.00">U</text>
</g>
<!-- IX100::AS3&#45;&#45;IX100::AS4 -->
<g id="edge3" class="edge">
<title>IX100::AS3&#45;&#45;IX100::AS4</title>
<path fill="none" stroke="black" stroke-dasharray="5,2" d="M470.33,-183.76C476.63,-172.46 485,-157.44 491.29,-146.15"/>
<text text-anchor="middle" x="486.29" y="-149.95" font-family="Times,serif" font-size="14.00">R</text>
<text text-anchor="middle" x="475.33" y="-172.56" font-family="Times,serif" font-size="14.00">R</text>
</g>
<!-- IX100::AS151 -->
<g id="node4" class="node">
<title>IX100::AS151</title>
<ellipse fill="none" stroke="black" cx="469.29" cy="-57" rx="35.19" ry="18"/>
<text text-anchor="middle" x="469.29" y="-53.3" font-family="Times,serif" font-size="14.00">AS151</text>
</g>
<!-- IX100::AS3&#45;&#45;IX100::AS151 -->
<g id="edge7" class="edge">
<title>IX100::AS3&#45;&#45;IX100::AS151</title>
<path fill="none" stroke="black" d="M461.4,-182.81C461.63,-163.4 462.31,-130.9 464.29,-103 464.94,-93.75 466.05,-83.46 467.06,-75.07"/>
<text text-anchor="middle" x="462.06" y="-78.87" font-family="Times,serif" font-size="14.00">C</text>
<text text-anchor="middle" x="456.4" y="-171.61" font-family="Times,serif" font-size="14.00">U</text>
</g>
<!-- IX100::AS3&#45;&#45;IX100::AS15169 -->
<g id="edge21" class="edge">
<title>IX100::AS3&#45;&#45;IX100::AS15169</title>
<path fill="none" stroke="black" d="M482.54,-189.76C499.32,-180.68 522.19,-165.92 536.29,-147 552.46,-125.3 560.27,-94.32 563.77,-75.22"/>
<text text-anchor="middle" x="558.77" y="-79.02" font-family="Times,serif" font-size="14.00">C</text>
<text text-anchor="middle" x="487.54" y="-178.56" font-family="Times,serif" font-size="14.00">U</text>
</g>
<!-- IX100::AS4&#45;&#45;IX100::AS151 -->
<g id="edge8" class="edge">
<title>IX100::AS4&#45;&#45;IX100::AS151</title>
<path fill="none" stroke="black" d="M492.94,-111.41C488.07,-100.41 481.7,-86.03 476.79,-74.96"/>
<text text-anchor="middle" x="471.79" y="-78.76" font-family="Times,serif" font-size="14.00">C</text>
<text text-anchor="middle" x="487.94" y="-100.21" font-family="Times,serif" font-size="14.00">U</text>
</g>
<!-- IX100::AS4&#45;&#45;IX100::AS15169 -->
<g id="edge22" class="edge">
<title>IX100::AS4&#45;&#45;IX100::AS15169</title>
<path fill="none" stroke="black" d="M514.28,-113.15C525.03,-101.76 539.85,-86.03 550.93,-74.29"/>
<text text-anchor="middle" x="545.93" y="-78.09" font-family="Times,serif" font-size="14.00">C</text>
<text text-anchor="middle" x="509.28" y="-101.95" font-family="Times,serif" font-size="14.00">U</text>
</g>
<!-- IX101::AS2 -->
<g id="node6" class="node">
<title>IX101::AS2</title>
<ellipse fill="none" stroke="black" cx="383.29" cy="-367" rx="27" ry="18"/>
<text text-anchor="middle" x="383.29" y="-363.3" font-family="Times,serif" font-size="14.00">AS2</text>
</g>
<!-- IX101::AS2&#45;&#45;IX100::AS2 -->
<g id="edge30" class="edge">
<title>IX101::AS2&#45;&#45;IX100::AS2</title>
<path fill="none" stroke="black" stroke-dasharray="1,5" d="M401.85,-353.87C425.23,-338.6 465.16,-312.52 488.59,-297.21"/>
<text text-anchor="middle" x="486.09" y="-301.01" font-family="Times,serif" font-size="14.00">I</text>
<text text-anchor="middle" x="399.35" y="-342.67" font-family="Times,serif" font-size="14.00">I</text>
</g>
<!-- IX101::AS150 -->
<g id="node7" class="node">
<title>IX101::AS150</title>
<ellipse fill="none" stroke="black" cx="375.29" cy="-284" rx="35.19" ry="18"/>
<text text-anchor="middle" x="375.29" y="-280.3" font-family="Times,serif" font-size="14.00">AS150</text>
</g>
<!-- IX101::AS2&#45;&#45;IX101::AS150 -->
<g id="edge6" class="edge">
<title>IX101::AS2&#45;&#45;IX101::AS150</title>
<path fill="none" stroke="black" d="M381.59,-348.82C380.23,-335.08 378.34,-315.89 376.98,-302.15"/>
<text text-anchor="middle" x="371.98" y="-305.95" font-family="Times,serif" font-size="14.00">C</text>
<text text-anchor="middle" x="376.59" y="-337.62" font-family="Times,serif" font-size="14.00">U</text>
</g>
<!-- IX102::AS2 -->
<g id="node8" class="node">
<title>IX102::AS2</title>
<ellipse fill="none" stroke="black" cx="669.29" cy="-442" rx="27" ry="18"/>
<text text-anchor="middle" x="669.29" y="-438.3" font-family="Times,serif" font-size="14.00">AS2</text>
</g>
<!-- IX102::AS2&#45;&#45;IX100::AS2 -->
<g id="edge28" class="edge">
<title>IX102::AS2&#45;&#45;IX100::AS2</title>
<path fill="none" stroke="black" stroke-dasharray="1,5" d="M647.81,-430.6C640.34,-426.52 632.13,-421.5 625.29,-416 580.67,-380.14 538.27,-326.77 518.66,-300.6"/>
<text text-anchor="middle" x="516.16" y="-304.4" font-family="Times,serif" font-size="14.00">I</text>
<text text-anchor="middle" x="645.31" y="-419.4" font-family="Times,serif" font-size="14.00">I</text>
</g>
<!-- IX102::AS2&#45;&#45;IX101::AS2 -->
<g id="edge29" class="edge">
<title>IX102::AS2&#45;&#45;IX101::AS2</title>
<path fill="none" stroke="black" stroke-dasharray="1,5" d="M643.34,-436.67C617.55,-432.18 576.96,-424.62 542.29,-416 493.6,-403.89 437.64,-386.07 406.79,-375.89"/>
<text text-anchor="middle" x="409.29" y="-379.69" font-family="Times,serif" font-size="14.00">I</text>
<text text-anchor="middle" x="640.84" y="-440.47" font-family="Times,serif" font-size="14.00">I</text>
</g>
<!-- IX102::AS11 -->
<g id="node9" class="node">
<title>IX102::AS11</title>
<ellipse fill="none" stroke="black" cx="841.29" cy="-367" rx="30.59" ry="18"/>
<text text-anchor="middle" x="841.29" y="-363.3" font-family="Times,serif" font-size="14.00">AS11</text>
</g>
<!-- IX102::AS2&#45;&#45;IX102::AS11 -->
<g id="edge4" class="edge">
<title>IX102::AS2&#45;&#45;IX102::AS11</title>
<path fill="none" stroke="black" d="M696.43,-441.11C724.51,-440.08 768.72,-435.15 801.29,-416 814.19,-408.41 824.8,-395.06 831.85,-384.36"/>
<text text-anchor="middle" x="826.85" y="-388.16" font-family="Times,serif" font-size="14.00">C</text>
<text text-anchor="middle" x="701.43" y="-444.91" font-family="Times,serif" font-size="14.00">U</text>
</g>
<!-- IX102::AS152 -->
<g id="node10" class="node">
<title>IX102::AS152</title>
<ellipse fill="none" stroke="black" cx="669.29" cy="-367" rx="35.19" ry="18"/>
<text text-anchor="middle" x="669.29" y="-363.3" font-family="Times,serif" font-size="14.00">AS152</text>
</g>
<!-- IX102::AS2&#45;&#45;IX102::AS152 -->
<g id="edge9" class="edge">
<title>IX102::AS2&#45;&#45;IX102::AS152</title>
<path fill="none" stroke="black" d="M669.29,-423.7C669.29,-412.06 669.29,-396.79 669.29,-385.18"/>
<text text-anchor="middle" x="664.29" y="-388.98" font-family="Times,serif" font-size="14.00">C</text>
<text text-anchor="middle" x="664.29" y="-412.5" font-family="Times,serif" font-size="14.00">U</text>
</g>
<!-- IX102::AS153 -->
<g id="node11" class="node">
<title>IX102::AS153</title>
<ellipse fill="none" stroke="black" cx="757.29" cy="-367" rx="35.19" ry="18"/>
<text text-anchor="middle" x="757.29" y="-363.3" font-family="Times,serif" font-size="14.00">AS153</text>
</g>
<!-- IX102::AS2&#45;&#45;IX102::AS153 -->
<g id="edge10" class="edge">
<title>IX102::AS2&#45;&#45;IX102::AS153</title>
<path fill="none" stroke="black" d="M690.73,-430.56C698.2,-426.49 706.41,-421.47 713.29,-416 725.13,-406.56 736.63,-393.85 744.9,-383.88"/>
<text text-anchor="middle" x="739.9" y="-387.68" font-family="Times,serif" font-size="14.00">C</text>
<text text-anchor="middle" x="695.73" y="-419.36" font-family="Times,serif" font-size="14.00">U</text>
</g>
<!-- IX102::AS170 -->
<g id="node12" class="node">
<title>IX102::AS170</title>
<ellipse fill="none" stroke="black" cx="837.29" cy="-284" rx="35.19" ry="18"/>
<text text-anchor="middle" x="837.29" y="-280.3" font-family="Times,serif" font-size="14.00">AS170</text>
</g>
<!-- IX102::AS11&#45;&#45;IX102::AS170 -->
<g id="edge16" class="edge">
<title>IX102::AS11&#45;&#45;IX102::AS170</title>
<path fill="none" stroke="black" d="M840.44,-348.82C839.76,-335.08 838.81,-315.89 838.13,-302.15"/>
<text text-anchor="middle" x="833.13" y="-305.95" font-family="Times,serif" font-size="14.00">C</text>
<text text-anchor="middle" x="835.44" y="-337.62" font-family="Times,serif" font-size="14.00">U</text>
</g>
<!-- IX103::AS3 -->
<g id="node13" class="node">
<title>IX103::AS3</title>
<ellipse fill="none" stroke="black" cx="193.29" cy="-442" rx="27" ry="18"/>
<text text-anchor="middle" x="193.29" y="-438.3" font-family="Times,serif" font-size="14.00">AS3</text>
</g>
<!-- IX103::AS3&#45;&#45;IX100::AS3 -->
<g id="edge27" class="edge">
<title>IX103::AS3&#45;&#45;IX100::AS3</title>
<path fill="none" stroke="black" stroke-dasharray="1,5" d="M166.21,-439.81C131.53,-437.66 74.34,-431.76 61.29,-416 40.02,-390.33 41.52,-367.84 61.29,-341 134.97,-240.93 206.33,-281.85 328.29,-258 348.86,-253.98 403.76,-259.81 422.29,-250 435.57,-242.97 445.99,-229.27 452.7,-218.3"/>
<text text-anchor="middle" x="450.2" y="-222.1" font-family="Times,serif" font-size="14.00">I</text>
<text text-anchor="middle" x="163.71" y="-443.61" font-family="Times,serif" font-size="14.00">I</text>
</g>
<!-- IX103::AS160 -->
<g id="node14" class="node">
<title>IX103::AS160</title>
<ellipse fill="none" stroke="black" cx="105.29" cy="-367" rx="35.19" ry="18"/>
<text text-anchor="middle" x="105.29" y="-363.3" font-family="Times,serif" font-size="14.00">AS160</text>
</g>
<!-- IX103::AS3&#45;&#45;IX103::AS160 -->
<g id="edge13" class="edge">
<title>IX103::AS3&#45;&#45;IX103::AS160</title>
<path fill="none" stroke="black" d="M171.84,-430.56C164.37,-426.49 156.16,-421.47 149.29,-416 137.44,-406.56 125.94,-393.85 117.67,-383.88"/>
<text text-anchor="middle" x="112.67" y="-387.68" font-family="Times,serif" font-size="14.00">C</text>
<text text-anchor="middle" x="166.84" y="-419.36" font-family="Times,serif" font-size="14.00">U</text>
</g>
<!-- IX103::AS161 -->
<g id="node15" class="node">
<title>IX103::AS161</title>
<ellipse fill="none" stroke="black" cx="193.29" cy="-367" rx="35.19" ry="18"/>
<text text-anchor="middle" x="193.29" y="-363.3" font-family="Times,serif" font-size="14.00">AS161</text>
</g>
<!-- IX103::AS3&#45;&#45;IX103::AS161 -->
<g id="edge14" class="edge">
<title>IX103::AS3&#45;&#45;IX103::AS161</title>
<path fill="none" stroke="black" d="M193.29,-423.7C193.29,-412.06 193.29,-396.79 193.29,-385.18"/>
<text text-anchor="middle" x="188.29" y="-388.98" font-family="Times,serif" font-size="14.00">C</text>
<text text-anchor="middle" x="188.29" y="-412.5" font-family="Times,serif" font-size="14.00">U</text>
</g>
<!-- IX103::AS162 -->
<g id="node16" class="node">
<title>IX103::AS162</title>
<ellipse fill="none" stroke="black" cx="281.29" cy="-367" rx="35.19" ry="18"/>
<text text-anchor="middle" x="281.29" y="-363.3" font-family="Times,serif" font-size="14.00">AS162</text>
</g>
<!-- IX103::AS3&#45;&#45;IX103::AS162 -->
<g id="edge15" class="edge">
<title>IX103::AS3&#45;&#45;IX103::AS162</title>
<path fill="none" stroke="black" d="M214.73,-430.56C222.2,-426.49 230.41,-421.47 237.29,-416 249.13,-406.56 260.63,-393.85 268.9,-383.88"/>
<text text-anchor="middle" x="263.9" y="-387.68" font-family="Times,serif" font-size="14.00">C</text>
<text text-anchor="middle" x="219.73" y="-419.36" font-family="Times,serif" font-size="14.00">U</text>
</g>
<!-- IX104::AS4 -->
<g id="node17" class="node">
<title>IX104::AS4</title>
<ellipse fill="none" stroke="black" cx="379.29" cy="-201" rx="27" ry="18"/>
<text text-anchor="middle" x="379.29" y="-197.3" font-family="Times,serif" font-size="14.00">AS4</text>
</g>
<!-- IX104::AS4&#45;&#45;IX100::AS4 -->
<g id="edge26" class="edge">
<title>IX104::AS4&#45;&#45;IX100::AS4</title>
<path fill="none" stroke="black" stroke-dasharray="1,5" d="M399,-188.6C421.5,-175.58 458.09,-154.41 480.58,-141.4"/>
<text text-anchor="middle" x="478.08" y="-145.2" font-family="Times,serif" font-size="14.00">I</text>
<text text-anchor="middle" x="396.5" y="-177.4" font-family="Times,serif" font-size="14.00">I</text>
</g>
<!-- IX104::AS154 -->
<g id="node18" class="node">
<title>IX104::AS154</title>
<ellipse fill="none" stroke="black" cx="375.29" cy="-129" rx="35.19" ry="18"/>
<text text-anchor="middle" x="375.29" y="-125.3" font-family="Times,serif" font-size="14.00">AS154</text>
</g>
<!-- IX104::AS4&#45;&#45;IX104::AS154 -->
<g id="edge11" class="edge">
<title>IX104::AS4&#45;&#45;IX104::AS154</title>
<path fill="none" stroke="black" d="M378.3,-182.7C377.68,-171.85 376.88,-157.92 376.26,-147.1"/>
<text text-anchor="middle" x="371.26" y="-150.9" font-family="Times,serif" font-size="14.00">C</text>
<text text-anchor="middle" x="373.3" y="-171.5" font-family="Times,serif" font-size="14.00">U</text>
</g>
<!-- IX105::AS3 -->
<g id="node19" class="node">
<title>IX105::AS3</title>
<ellipse fill="none" stroke="black" cx="927.29" cy="-517" rx="27" ry="18"/>
<text text-anchor="middle" x="927.29" y="-513.3" font-family="Times,serif" font-size="14.00">AS3</text>
</g>
<!-- IX105::AS3&#45;&#45;IX100::AS3 -->
<g id="edge24" class="edge">
<title>IX105::AS3&#45;&#45;IX100::AS3</title>
<path fill="none" stroke="black" stroke-dasharray="1,5" d="M900.04,-516.15C756.31,-516.8 91.54,-518.36 58.29,-491 -21.71,-425.2 -18.1,-322.08 63.29,-258 78.96,-245.66 404.37,-258.77 422.29,-250 435.79,-243.39 446.18,-229.65 452.84,-218.56"/>
<text text-anchor="middle" x="455.34" y="-222.36" font-family="Times,serif" font-size="14.00">I</text>
<text text-anchor="middle" x="897.54" y="-519.95" font-family="Times,serif" font-size="14.00">I</text>
</g>
<!-- IX105::AS3&#45;&#45;IX103::AS3 -->
<g id="edge25" class="edge">
<title>IX105::AS3&#45;&#45;IX103::AS3</title>
<path fill="none" stroke="black" stroke-dasharray="1,5" d="M900.33,-514.06C847.13,-510.17 724.88,-500.94 622.29,-491 469.74,-476.22 287.15,-454.42 219.86,-446.25"/>
<text text-anchor="middle" x="222.36" y="-450.05" font-family="Times,serif" font-size="14.00">I</text>
<text text-anchor="middle" x="897.83" y="-502.86" font-family="Times,serif" font-size="14.00">I</text>
</g>
<!-- IX105::AS11 -->
<g id="node20" class="node">
<title>IX105::AS11</title>
<ellipse fill="none" stroke="black" cx="927.29" cy="-442" rx="30.59" ry="18"/>
<text text-anchor="middle" x="927.29" y="-438.3" font-family="Times,serif" font-size="14.00">AS11</text>
</g>
<!-- IX105::AS3&#45;&#45;IX105::AS11 -->
<g id="edge5" class="edge">
<title>IX105::AS3&#45;&#45;IX105::AS11</title>
<path fill="none" stroke="black" d="M927.29,-498.7C927.29,-487.06 927.29,-471.79 927.29,-460.18"/>
<text text-anchor="middle" x="922.29" y="-463.98" font-family="Times,serif" font-size="14.00">C</text>
<text text-anchor="middle" x="922.29" y="-487.5" font-family="Times,serif" font-size="14.00">U</text>
</g>
<!-- IX105::AS155 -->
<g id="node21" class="node">
<title>IX105::AS155</title>
<ellipse fill="none" stroke="black" cx="1011.29" cy="-442" rx="35.19" ry="18"/>
<text text-anchor="middle" x="1011.29" y="-438.3" font-family="Times,serif" font-size="14.00">AS155</text>
</g>
<!-- IX105::AS3&#45;&#45;IX105::AS155 -->
<g id="edge12" class="edge">
<title>IX105::AS3&#45;&#45;IX105::AS155</title>
<path fill="none" stroke="black" d="M947.55,-504.8C954.1,-500.8 961.24,-496.03 967.29,-491 978.76,-481.46 990.1,-469 998.39,-459.16"/>
<text text-anchor="middle" x="993.39" y="-462.96" font-family="Times,serif" font-size="14.00">C</text>
<text text-anchor="middle" x="952.55" y="-493.6" font-family="Times,serif" font-size="14.00">U</text>
</g>
<!-- IX105::AS11872 -->
<g id="node23" class="node">
<title>IX105::AS11872</title>
<ellipse fill="none" stroke="black" cx="1028.29" cy="-367" rx="44.39" ry="18"/>
<text text-anchor="middle" x="1028.29" y="-363.3" font-family="Times,serif" font-size="14.00">AS11872</text>
</g>
<!-- IX105::AS3&#45;&#45;IX105::AS11872 -->
<g id="edge18" class="edge">
<title>IX105::AS3&#45;&#45;IX105::AS11872</title>
<path fill="none" stroke="black" d="M954.13,-514.65C987.82,-512.33 1042.73,-506.25 1055.29,-491 1080.72,-460.12 1055.99,-410.53 1039.82,-384.77"/>
<text text-anchor="middle" x="1034.82" y="-388.57" font-family="Times,serif" font-size="14.00">X</text>
<text text-anchor="middle" x="959.13" y="-518.45" font-family="Times,serif" font-size="14.00">X</text>
</g>
<!-- IX105::AS11&#45;&#45;IX102::AS11 -->
<g id="edge23" class="edge">
<title>IX105::AS11&#45;&#45;IX102::AS11</title>
<path fill="none" stroke="black" stroke-dasharray="1,5" d="M904.54,-429.54C897.73,-425.66 890.45,-421.02 884.29,-416 872.66,-406.53 861.42,-393.83 853.35,-383.86"/>
<text text-anchor="middle" x="850.85" y="-387.66" font-family="Times,serif" font-size="14.00">I</text>
<text text-anchor="middle" x="902.04" y="-418.34" font-family="Times,serif" font-size="14.00">I</text>
</g>
<!-- IX105::AS171 -->
<g id="node22" class="node">
<title>IX105::AS171</title>
<ellipse fill="none" stroke="black" cx="931.29" cy="-367" rx="35.19" ry="18"/>
<text text-anchor="middle" x="931.29" y="-363.3" font-family="Times,serif" font-size="14.00">AS171</text>
</g>
<!-- IX105::AS11&#45;&#45;IX105::AS171 -->
<g id="edge17" class="edge">
<title>IX105::AS11&#45;&#45;IX105::AS171</title>
<path fill="none" stroke="black" d="M928.23,-423.7C928.87,-412.06 929.71,-396.79 930.34,-385.18"/>
<text text-anchor="middle" x="925.34" y="-388.98" font-family="Times,serif" font-size="14.00">C</text>
<text text-anchor="middle" x="923.23" y="-412.5" font-family="Times,serif" font-size="14.00">U</text>
</g>
<!-- IX105::AS11&#45;&#45;IX105::AS11872 -->
<g id="edge19" class="edge">
<title>IX105::AS11&#45;&#45;IX105::AS11872</title>
<path fill="none" stroke="black" d="M950.93,-430.2C958.92,-426.16 967.73,-421.26 975.29,-416 988.73,-406.64 1002.41,-394.17 1012.49,-384.29"/>
<text text-anchor="middle" x="1007.49" y="-388.09" font-family="Times,serif" font-size="14.00">X</text>
<text text-anchor="middle" x="955.93" y="-419" font-family="Times,serif" font-size="14.00">X</text>
</g>
</g>
</svg>
